:FULLY-SPECIFIED
:FORCE-ALL-JOINTS-BE-3DOF
:DEGREES
1529
root -4.66361 15.3303 20.9472 556.941 -15.292 564.292
lfemur -44.3923 18.8164 -10.4463
ltibia 88.8529 0 0
lfoot -12.8018 24.4619 0
ltoes -12.0503 0 0
rfemur -36.6432 -3.78868 17.2228
rtibia 64.6519 0 0
rfoot -23.5981 -16.3974 0
rtoes -35.9165 0 0
lowerback 16.6804 1.15533 5.96087
upperback -1.28529 2.89321 4.19598
thorax -10.8309 1.04741 0.469449
lowerneck -4.07721 8.43897 4.36157
upperneck 0.795255 11.364 -10.084
head 1.65008 5.44744 -3.57309
lclavicle -4.71589e-14 -1.67451e-14 0
lhumerus 0.249807 -32.5857 75.6936
lradius 94.9516 0 0
lwrist -9.78713 0 0
lhand -27.9131 58.9775 0
lfingers 7.12502 0 0
lthumb -1.30185 -19.1202 0
rclavicle -4.71589e-14 -1.67451e-14 0
rhumerus -60.9354 37.6787 -91.7459
rradius 106.912 0 0
rwrist -59.1099 0 0
rhand 8.26066 -30.6579 0
rfingers 7.12502 0 0
rthumb 34.1433 -61.032 0
1530
root -4.5969 15.341 20.8841 554.036 -18.5616 564.911
lfemur -44.1641 19.1757 -9.50185
ltibia 86.4912 0 0
lfoot -12.9229 25.2983 0
ltoes -10.3548 0 0
rfemur -35.1177 -4.77234 16.8736
rtibia 64.2145 0 0
rfoot -22.8111 -18.3446 0
rtoes -36.1692 0 0
lowerback 16.2913 1.02349 5.72319
upperback -1.27376 2.66437 4.17615
thorax -10.6068 0.960984 0.635796
lowerneck -4.14826 7.89865 4.13008
upperneck 0.496152 10.6188 -9.5804
head 1.47497 5.09477 -3.39738
lclavicle -5.13128e-14 -1.02588e-14 0
lhumerus -1.30016 -25.4361 75.4033
lradius 88.9098 0 0
lwrist -13.3895 0 0
lhand -28.3496 57.4398 0
lfingers 7.12502 0 0
lthumb -1.72348 -3.91378 0
rclavicle -5.13128e-14 -1.02588e-14 0
rhumerus -62.6584 35.692 -92.475
rradius 106.072 0 0
rwrist -60.5728 0 0
rhand 6.3596 -31.3343 0
rfingers 7.12502 0 0
rthumb 32.5023 -62.9099 0
1531
root -4.52979 15.3514 20.7698 550.721 -21.8862 564.515
lfemur -43.7312 19.463 -8.58295
ltibia 83.9118 0 0
lfoot -13.1136 26.1251 0
ltoes -8.69692 0 0
rfemur -33.6205 -5.7641 16.4422
rtibia 63.6473 0 0
rfoot -21.7969 -20.1989 0
rtoes -36.2218 0 0
lowerback 15.8848 0.882952 5.39619
upperback -1.26256 2.40771 4.14505
thorax -10.3714 0.866417 0.847513
lowerneck -4.22228 7.26559 3.82252
upperneck 0.252712 9.74881 -8.98908
head 1.31694 4.68114 -3.18688
lclavicle -5.52319e-14 -3.60502e-15 0
lhumerus -3.01954 -18.2385 75.2812
lradius 82.7726 0 0
lwrist -16.8505 0 0
lhand -28.7947 55.8313 0
lfingers 7.12502 0 0
lthumb -2.15333 10.8505 0
rclavicle -5.52319e-14 -3.60502e-15 0
rhumerus -63.9444 33.5856 -93.0522
rradius 105.233 0 0
rwrist -61.8351 0 0
rhand 4.44716 -31.9971 0
rfingers 7.12502 0 0
rthumb 30.8164 -64.5978 0
1532
root -4.47301 15.3617 20.6226 547.46 -25.2397 563.146
lfemur -43.1189 19.6616 -7.72197
ltibia 81.205 0 0
lfoot -13.3586 26.9014 0
ltoes -7.16365 0 0
rfemur -32.2168 -6.72886 15.9522
rtibia 62.994 0 0
rfoot -20.6249 -21.8885 0
rtoes -36.0915 0 0
lowerback 15.4808 0.738193 4.99498
upperback -1.25191 2.13207 4.10606
thorax -10.1357 0.766894 1.09787
lowerneck -4.29523 6.56637 3.45323
upperneck 0.0660902 8.79098 -8.33648
head 1.17914 4.22404 -2.95062
lclavicle -5.88086e-14 2.97348e-15 0
lhumerus -4.8046 -11.2699 75.3077
lradius 76.7272 0 0
lwrist -20.0841 0 0
lhand -29.229 54.2018 0
lfingers 7.12502 0 0
lthumb -2.57273 24.9455 0
rclavicle -5.88086e-14 2.97348e-15 0
rhumerus -64.7888 31.4367 -93.4733
rradius 104.446 0 0
rwrist -62.8876 0 0
rhand 2.69181 -32.6122 0
rfingers 7.12502 0 0
rthumb 29.2269 -65.9354 0
